<?xml version="1.0" encoding="UTF-8" standalone="no"?>
<!-- Created with Inkscape (http://www.inkscape.org/) -->

<svg
   xmlns:dc="http://purl.org/dc/elements/1.1/"
   xmlns:cc="http://creativecommons.org/ns#"
   xmlns:rdf="http://www.w3.org/1999/02/22-rdf-syntax-ns#"
   xmlns:svg="http://www.w3.org/2000/svg"
   xmlns="http://www.w3.org/2000/svg"
   xmlns:xlink="http://www.w3.org/1999/xlink"
   xmlns:sodipodi="http://sodipodi.sourceforge.net/DTD/sodipodi-0.dtd"
   xmlns:inkscape="http://www.inkscape.org/namespaces/inkscape"
   width="135.12199mm"
   height="135.4532mm"
   viewBox="0 0 135.12199 135.4532"
   version="1.1"
   id="svg8"
   inkscape:version="0.92.5 (2060ec1f9f, 2020-04-08)"
   sodipodi:docname="intellij.svg">
  <defs
     id="defs2">
    <linearGradient
       inkscape:collect="always"
       id="linearGradient909">
      <stop
         style="stop-color:#f97a12;stop-opacity:1;"
         offset="0"
         id="stop905" />
      <stop
         style="stop-color:#bf875c;stop-opacity:1"
         offset="1"
         id="stop907" />
    </linearGradient>
    <linearGradient
       inkscape:collect="always"
       id="linearGradient899">
      <stop
         style="stop-color:#fe315d;stop-opacity:1"
         offset="0"
         id="stop895" />
      <stop
         style="stop-color:#af498f;stop-opacity:1"
         offset="1"
         id="stop897" />
    </linearGradient>
    <linearGradient
       inkscape:collect="always"
       id="linearGradient889">
      <stop
         style="stop-color:#0d7cf5;stop-opacity:0.98431373"
         offset="0"
         id="stop885" />
      <stop
         style="stop-color:#785ab2;stop-opacity:1"
         offset="1"
         id="stop887" />
    </linearGradient>
    <linearGradient
       inkscape:collect="always"
       id="linearGradient881">
      <stop
         style="stop-color:#b0498f;stop-opacity:1"
         offset="0"
         id="stop877" />
      <stop
         style="stop-color:#725db4;stop-opacity:1"
         offset="1"
         id="stop879" />
    </linearGradient>
    <linearGradient
       inkscape:collect="always"
       xlink:href="#linearGradient881"
       id="linearGradient883"
       x1="86.116318"
       y1="13.279451"
       x2="125.46987"
       y2="54.594055"
       gradientUnits="userSpaceOnUse"
       gradientTransform="translate(2.1962357,-34.244056)" />
    <linearGradient
       inkscape:collect="always"
       xlink:href="#linearGradient889"
       id="linearGradient891"
       x1="157.05981"
       y1="-50.513737"
       x2="160.62239"
       y2="13.257414"
       gradientUnits="userSpaceOnUse"
       gradientTransform="translate(2.1959052,-34.244275)" />
    <linearGradient
       inkscape:collect="always"
       xlink:href="#linearGradient899"
       id="linearGradient901"
       x1="190.46222"
       y1="-97.691559"
       x2="204.54182"
       y2="-64.807632"
       gradientUnits="userSpaceOnUse"
       gradientTransform="translate(-78.431261,40.977118)" />
    <linearGradient
       inkscape:collect="always"
       xlink:href="#linearGradient909"
       id="linearGradient911"
       x1="195.09242"
       y1="-74.821037"
       x2="237.12692"
       y2="-73.751961"
       gradientUnits="userSpaceOnUse"
       gradientTransform="translate(-127.36971,63.518434)" />
    <linearGradient
       inkscape:collect="always"
       xlink:href="#linearGradient909"
       id="linearGradient923"
       gradientUnits="userSpaceOnUse"
       gradientTransform="translate(-127.36971,63.518434)"
       x1="195.09242"
       y1="-74.821037"
       x2="237.12692"
       y2="-73.751961" />
    <linearGradient
       inkscape:collect="always"
       xlink:href="#linearGradient889"
       id="linearGradient925"
       gradientUnits="userSpaceOnUse"
       gradientTransform="translate(2.1962352,-34.244057)"
       x1="157.05981"
       y1="-50.513737"
       x2="160.62239"
       y2="13.257414" />
    <linearGradient
       inkscape:collect="always"
       xlink:href="#linearGradient899"
       id="linearGradient927"
       gradientUnits="userSpaceOnUse"
       gradientTransform="translate(-78.431261,40.977118)"
       x1="190.46222"
       y1="-97.691559"
       x2="204.54182"
       y2="-64.807632" />
  </defs>
  <sodipodi:namedview
     id="base"
     pagecolor="#ffffff"
     bordercolor="#666666"
     borderopacity="1.0"
     inkscape:pageopacity="0.0"
     inkscape:pageshadow="2"
     inkscape:zoom="0.49497475"
     inkscape:cx="288.66241"
     inkscape:cy="271.24248"
     inkscape:document-units="mm"
     inkscape:current-layer="layer1"
     showgrid="false"
     inkscape:snap-global="true"
     showguides="true"
     inkscape:guide-bbox="true"
     inkscape:window-width="1366"
     inkscape:window-height="732"
     inkscape:window-x="1366"
     inkscape:window-y="0"
     inkscape:window-maximized="1" />
  <metadata
     id="metadata5">
    <rdf:RDF>
      <cc:Work
         rdf:about="">
        <dc:format>image/svg+xml</dc:format>
        <dc:type
           rdf:resource="http://purl.org/dc/dcmitype/StillImage" />
        <dc:title></dc:title>
      </cc:Work>
    </rdf:RDF>
  </metadata>
  <g
     inkscape:label="Layer 1"
     inkscape:groupmode="layer"
     id="layer1"
     transform="translate(-25.865274,170.71197)">
    <g
       id="g826"
       transform="translate(-210.94851,98.916364)">
      <g
         id="g868"
         transform="translate(7.1277924,163.94846)">
        <g
           id="g973"
           transform="translate(170.51796,-182.66572)">
          <g
             id="g955"
             transform="translate(-7.1277931,-163.94846)">
            <path
               style="fill:url(#linearGradient923);fill-opacity:1;stroke:none;stroke-width:0.26458332px;stroke-linecap:butt;stroke-linejoin:miter;stroke-opacity:1"
               d="m 67.722705,-7.2523999 29.95461,23.9690619 30.254225,-56.038538 -45.467765,4.949683 z"
               id="path903"
               inkscape:connector-curvature="0"
               sodipodi:nodetypes="ccccc" />
            <path
               style="opacity:1;fill:#0b7cf7;fill-opacity:1;stroke:none;stroke-width:0.26458332px;stroke-linecap:butt;stroke-linejoin:miter;stroke-opacity:1"
               d="M 146.97047,48.490585 198.89513,27.612036 201.41749,-50.814865 159.25572,-84.758093 92.892375,-8.8488788 76.970125,45.201713 118.49712,30.201209 Z"
               id="path862"
               inkscape:connector-curvature="0"
               sodipodi:nodetypes="cccccccc" />
            <g
               id="g943">
              <path
                 inkscape:connector-curvature="0"
                 id="path870"
                 d="m 108.62504,-26.844535 c 0.54334,0.340855 0.93209,0.627843 1.51205,0.981337 2.31025,1.408126 4.9038,2.913737 7.72356,4.493265 2.81976,1.579528 5.86533,3.232859 9.08007,4.937167 3.21473,1.704306 6.59827,3.459589 10.09344,5.242057 6.56249,3.346737 13.54435,6.788241 20.51451,10.174056 l 15.8533,-16.190228 28.01585,-33.607766 -42.16176,-33.943147 z"
                 style="fill:url(#linearGradient925);fill-opacity:1;stroke:none;stroke-width:0.26458332px;stroke-linecap:butt;stroke-linejoin:miter;stroke-opacity:1" />
              <path
                 inkscape:connector-curvature="0"
                 id="path875"
                 d="M 108.62504,-26.844535 92.892665,-8.848732 76.970125,45.201713 131.44587,25.641668 157.54867,-1.016653 c -6.97016,-3.385815 -13.95202,-6.827319 -20.51451,-10.174055 -3.49517,-1.782468 -6.87871,-3.537752 -10.09344,-5.242058 -3.21474,-1.704308 -6.26031,-3.357639 -9.08007,-4.937167 -2.81976,-1.579527 -5.41331,-3.085139 -7.72356,-4.493265 -0.57996,-0.353494 -0.96871,-0.640482 -1.51205,-0.981337 z"
                 style="fill:url(#linearGradient883);fill-opacity:1;stroke:none;stroke-width:0.26458332px;stroke-linecap:butt;stroke-linejoin:miter;stroke-opacity:1" />
            </g>
            <path
               style="opacity:1;fill:url(#linearGradient927);fill-opacity:1;stroke:none;stroke-width:0.26458332px;stroke-linecap:butt;stroke-linejoin:miter;stroke-opacity:1"
               d="m 128.18943,-81.859932 29.67113,34.112346 -55.54791,26.572975 -36.016825,-12.020892 19.65476,-53.767109 z"
               id="path893"
               inkscape:connector-curvature="0"
               sodipodi:nodetypes="cccccc" />
          </g>
          <rect
             style="opacity:1;fill:#ffffff;fill-opacity:1;fill-rule:evenodd;stroke:none;stroke-width:6.0501256;stroke-miterlimit:4;stroke-dasharray:none;stroke-opacity:1;paint-order:stroke fill markers"
             id="rect864"
             width="56.576492"
             height="69.92025"
             x="93.373207"
             y="-218.36519" />
          <path
             sodipodi:nodetypes="ccccsccccccccccccccccsccsccccccccccsscscssccccccccc"
             style="fill:#020203;stroke-width:0.26458332"
             d="m 85.421237,-225.61356 83.489053,0.0668 0.005,41.52345 -0.005,41.98509 c 0,0 -19.10515,-0.0626 -41.73362,-0.0406 l -41.73413,0.0406 c 0,0 0.04895,-55.74989 -0.0213,-83.57536 z m 39.056623,72.9066 c 0.3588,-0.3588 0.43899,-4.37317 0.0981,-4.91015 -0.16668,-0.26255 -3.50526,-0.31845 -15.80481,-0.26459 l -15.593481,0.0683 -0.0771,2.36032 c -0.0424,1.29817 -0.0164,2.51856 0.0578,2.71197 0.18808,0.49014 30.830071,0.52357 31.319471,0.0342 z m 12.22375,-27.52721 c 2.52083,-0.77001 3.41662,-1.30115 4.97707,-2.9511 1.64682,-1.74127 2.56168,-3.59963 2.94455,-5.98127 0.32654,-2.03126 0.37852,-25.10041 0.0577,-25.60598 -0.16175,-0.25489 -1.15529,-0.32011 -4.03084,-0.26458 l -3.81619,0.0737 -0.13229,12.43541 c -0.12584,11.82967 -0.15806,12.47918 -0.66146,13.3338 -1.62711,2.76241 -5.3141,2.82519 -8.29923,0.1413 -0.71693,-0.64458 -1.47737,-1.17197 -1.68985,-1.17197 -0.46396,0 -4.53069,4.59152 -4.63906,5.2377 -0.16879,1.00647 4.07072,4.2123 6.42078,4.85526 3.04593,0.83335 5.91414,0.80028 8.86882,-0.10226 z m -20.76979,-3.24383 v -3.175 l -2.24896,-0.13229 -2.24896,-0.13229 -0.0692,-10.64948 -0.0691,-10.64948 h 2.06676 c 1.25469,0 2.1915,-0.12475 2.38425,-0.3175 0.33299,-0.33299 0.46114,-5.35032 0.1569,-6.14315 -0.14187,-0.3697 -1.15919,-0.41852 -8.72194,-0.41852 -8.193561,0 -8.573111,0.022 -8.835241,0.51178 -0.15064,0.28147 -0.27389,1.64219 -0.27389,3.02381 0,3.22202 0.10661,3.34358 2.932321,3.34358 h 2.10077 l -0.0691,10.64948 -0.0692,10.64948 -2.24054,0.0778 c -1.381941,0.048 -2.318251,0.20005 -2.443341,0.39687 -0.24114,0.3794 -0.28185,5.25033 -0.049,5.85724 0.1445,0.37655 1.10692,0.41453 8.929691,0.35237 l 8.76773,-0.0697 z"
             id="path828"
             inkscape:connector-curvature="0" />
        </g>
      </g>
    </g>
  </g>
</svg>
